<svg xmlns="http://www.w3.org/2000/svg" width="1200" height="820" viewBox="0 0 1200 820">
  <defs>
    <radialGradient id="g" cx="25%" cy="15%" r="75%">
      <stop offset="0%" stop-color="#eef4ff" />
      <stop offset="65%" stop-color="#ffffff" />
      <stop offset="100%" stop-color="#f7f8fa" />
    </radialGradient>
    <linearGradient id="b" x1="0" y1="0" x2="1" y2="1">
      <stop offset="0" stop-color="#0b4aa2" />
      <stop offset="1" stop-color="#0b6b3a" />
    </linearGradient>
  </defs>
  <rect width="1200" height="820" fill="url(#g)" />
  <rect x="84" y="92" width="1032" height="636" rx="28" fill="#ffffff" stroke="#d7dde6" stroke-width="6" />

  <rect x="120" y="140" width="380" height="24" rx="12" fill="#eef4ff" />
  <rect x="120" y="182" width="540" height="18" rx="9" fill="#e6ebf3" />
  <rect x="120" y="220" width="500" height="18" rx="9" fill="#e6ebf3" />
  <rect x="120" y="258" width="460" height="18" rx="9" fill="#e6ebf3" />

  <rect x="120" y="312" width="220" height="56" rx="18" fill="url(#b)" />
  <rect x="366" y="312" width="220" height="56" rx="18" fill="#ffffff" stroke="#d7dde6" stroke-width="6" />

  <g opacity="0.95">
    <rect x="720" y="160" width="330" height="420" rx="26" fill="#ffffff" stroke="#d7dde6" stroke-width="6" />
    <circle cx="885" cy="275" r="68" fill="#eef4ff" />
    <path d="M825 438c26-62 94-92 160-92s134 30 160 92" fill="#eef4ff" />
    <rect x="765" y="476" width="240" height="18" rx="9" fill="#e6ebf3" />
    <rect x="795" y="510" width="180" height="18" rx="9" fill="#e6ebf3" />
  </g>
</svg>

